<?xml version="1.0" encoding="UTF-8"?>
<svg width="22px" height="22px" viewBox="0 0 22 22" version="1.1" xmlns="http://www.w3.org/2000/svg">
    <title>Check Digit Logo</title>
    <defs></defs>
    <g id="Page-1" stroke="none" stroke-width="1" fill="none" fill-rule="evenodd">
        <g id="checkdigit-logo">
            <g id="logo" transform="translate(0.004660, 0.168839)">
                <circle id="Oval" fill="#fc89ac" cx="10.8910891" cy="10.8910891" r="10.8910891"></circle>
                <path d="M13.9987584,12.1001437 L11.8424328,9.94381804 L8.91599087,12.87026 C8.14587457,13.6403763 6.9136885,13.6403763 6.1435722,12.87026 C5.3734559,12.1001437 5.3734559,10.8679576 6.1435722,10.0978413 L9.07001413,7.17139937 L6.9136885,5.01507374 L3.98724657,7.94151567 C2.03115118,9.89761106 2.03115118,13.0704902 3.98724657,15.0265856 C5.94334196,16.982681 9.1162211,16.982681 11.0723165,15.0265856 L13.9987584,12.1001437 L13.9987584,12.1001437 L13.9987584,12.1001437 Z" id="c1" fill="#FFFFFF"></path>
                <path d="M7.39823009,9.45546037 L9.55455572,11.611786 L12.4809976,8.68534408 C13.2511139,7.91522778 14.4833,7.91522778 15.2534163,8.68534408 C16.0235326,9.45546037 16.0235326,10.6876464 15.2534163,11.4577627 L12.3269744,14.3842047 L14.4833,16.5405303 L17.4097419,13.6140884 C19.3658373,11.657993 19.3658373,8.48511384 17.4097419,6.52901845 C15.4536465,4.57292305 12.2807674,4.57292305 10.324672,6.52901845 L7.39823009,9.45546037 L7.39823009,9.45546037 L7.39823009,9.45546037 Z" id="c2" fill="#FFFFFF"></path>
            </g>
        </g>
    </g>
</svg>